<svg width="140" height="140" viewBox="0 0 140 140" fill="none" xmlns="http://www.w3.org/2000/svg">
  <defs>
    <linearGradient id="purpleGradient" x1="0%" y1="0%" x2="100%" y2="100%">
      <stop offset="0%" stop-color="#6A1B9A"/>
      <stop offset="100%" stop-color="#4A148C"/>
    </linearGradient>
  </defs>
  <g clip-path="url(#clip0)">
    <!-- Background circle -->
    <circle cx="70" cy="70" r="65" fill="url(#purpleGradient)" stroke="#4A148C" stroke-width="5"/>

    <!-- Left hand -->
    <path d="M50 70 C40 80, 30 90, 50 100 Q60 110, 65 105 T70 100" fill="#FFFFFF" stroke="#4A148C" stroke-width="2"/>
    <path d="M50 70 Q40 60, 45 50 T50 40 Q55 50, 60 55 T65 60 T70 70" fill="#FFFFFF" stroke="#4A148C" stroke-width="2"/>

    <!-- Right hand -->
    <path d="M90 70 C100 80, 110 90, 90 100 Q80 110, 75 105 T70 100" fill="#FFFFFF" stroke="#4A148C" stroke-width="2"/>
    <path d="M90 70 Q100 60, 95 50 T90 40 Q85 50, 80 55 T75 60 T70 70" fill="#FFFFFF" stroke="#4A148C" stroke-width="2"/>

    <!-- Symbolizing the AI prompt (a lightbulb) in the center -->
    <path d="M70 55 Q68 60, 70 65 T75 70 Q73 75, 75 80 T70 85 T65 80 Q67 75, 65 70 T70 65 Q72 60, 70 55" fill="#FFFF00" stroke="#FFD700" stroke-width="2"/>
    <rect x="68" y="80" width="4" height="10" fill="#FFD700"/>
    <rect x="66" y="90" width="8" height="2" fill="#FFD700"/>
  </g>
</svg>
